<svg width="24" height="19" viewBox="0 0 24 19" fill="none" xmlns="http://www.w3.org/2000/svg">
<path d="M15.3785 0C15.144 0.434882 14.9334 0.884767 14.742 1.34465C12.9232 1.05973 11.0709 1.05973 9.24729 1.34465C9.06063 0.884767 8.84523 0.434882 8.61072 0C6.902 0.30493 5.23636 0.83978 3.65689 1.59458C0.526643 6.43831 -0.320532 11.1571 0.100668 15.8108C1.93381 17.2255 3.98715 18.3052 6.17448 18.995C6.66747 18.3052 7.10303 17.5704 7.47636 16.8056C6.76798 16.5307 6.08354 16.1857 5.42782 15.7859C5.60012 15.6559 5.76765 15.5209 5.93038 15.391C9.77378 17.2805 14.2251 17.2805 18.0732 15.391C18.236 15.5309 18.4035 15.6659 18.5758 15.7859C17.9201 16.1907 17.2356 16.5307 16.5225 16.8106C16.8958 17.5754 17.3313 18.3102 17.8244 19C20.0116 18.3102 22.0649 17.2355 23.8982 15.8208C24.3959 10.4223 23.0462 5.74348 20.3323 1.59958C18.7577 0.844788 17.092 0.309918 15.3833 0.00999479L15.3785 0ZM8.01242 12.9466C6.83022 12.9466 5.84902 11.8269 5.84902 10.4423C5.84902 9.05764 6.79192 7.93292 8.00765 7.93292C9.22338 7.93292 10.1902 9.06262 10.171 10.4423C10.1519 11.8219 9.21858 12.9466 8.01242 12.9466ZM15.9864 12.9466C14.7994 12.9466 13.8278 11.8269 13.8278 10.4423C13.8278 9.05764 14.7707 7.93292 15.9864 7.93292C17.2021 7.93292 18.1642 9.06262 18.145 10.4423C18.1259 11.8219 17.1926 12.9466 15.9864 12.9466Z" fill="white"/>
</svg>
