<svg width="20" height="20" viewBox="0 0 20 20" fill="none" xmlns="http://www.w3.org/2000/svg">
<path d="M0.000184155 1.77625C0.000587132 0.795496 0.795581 5.2928e-06 1.77643 4.94509e-06L17.7639 0.00122931C18.745 0.00122864 19.5401 0.796377 19.5401 1.77748L19.5414 17.7649C19.5414 18.7458 18.7459 19.5408 17.7651 19.5412C16.784 19.5412 15.9889 18.746 15.9889 17.7649L15.9876 6.06599L3.03256 19.0211C2.33882 19.7148 1.21404 19.7148 0.520299 19.0211C-0.173443 18.3273 -0.173443 17.2025 0.520299 16.5088L13.4754 3.55373L1.77643 3.5525C0.795333 3.5525 0.000184071 2.75735 0.000184155 1.77625Z" fill="white"/>
</svg>
