<svg width="48" height="48" viewBox="0 0 48 48" fill="none" xmlns="http://www.w3.org/2000/svg">
<path fill-rule="evenodd" clip-rule="evenodd" d="M0 24C0 35.2606 7.75513 44.7099 18.2158 47.2984C20.0684 47.7568 22.0057 48 24 48C32.557 48 40.0681 43.5218 44.3173 36.7811C46.6503 33.0804 48 28.6978 48 24C48 10.7452 37.2548 0 24 0C10.7452 0 0 10.7452 0 24ZM18.3687 41.6878C18.4197 42.9839 17.1591 43.9032 15.961 43.4063C8.35191 40.2508 3 32.7504 3 24C3 12.402 12.402 3 24 3C35.598 3 45 12.402 45 24C45 24.8022 44.955 25.5938 44.8675 26.3726C44.6534 28.2758 42.2269 28.2424 41.4221 26.5044C40.6032 24.7359 39.5949 23.0886 38.3736 21.8208C37.7029 21.1246 37.4561 20.0991 38.0254 19.3178C38.1211 19.1866 38.2196 19.0529 38.3196 18.9172C39.6716 17.0829 41.2961 14.8789 39.7122 13.295C37.9694 11.5522 35.8277 13.1346 34.1625 14.365C33.9308 14.5362 33.7072 14.7013 33.4963 14.8489C33.4963 14.8489 24.6906 12.6043 18.4747 12.6043C12.9496 12.6043 7.59705 13.813 7.59705 22.0144C7.59705 27.4532 7.59717 31.0791 13.6402 32.8921C17.2138 34.4908 18.2147 37.7801 18.3687 41.6878ZM14.1659 16.9216C13.8785 17.9534 16.0717 19.875 16.875 19.6598C17.4713 19.5 15 15.5 14.1659 16.9216ZM11.625 16.6812C12.375 17.8108 9.659 20.3846 9.0965 19.4194C8.65674 18.3091 10.9435 15.6548 11.625 16.6812ZM26.5788 15.686C27.0816 15.6712 27.6633 15.7029 28.2187 15.81C28.7687 15.9161 29.324 16.1021 29.7485 16.417C29.9545 16.5698 30.1138 16.7824 30.1243 17.0509C30.1345 17.3125 29.999 17.5233 29.8498 17.6681C29.5566 17.9527 29.0675 18.133 28.5789 18.1799C28.0812 18.2277 27.5051 18.145 27.0369 17.8108C26.6317 17.5215 26.3459 17.0709 26.2494 16.4512C25.6129 16.4889 25.1816 16.5727 24.791 16.6812C24.5914 16.7366 24.3848 16.6196 24.3293 16.4201C24.274 16.2206 24.3907 16.0139 24.5903 15.9585C25.1123 15.8135 25.6871 15.7123 26.5788 15.686ZM12.5 28.5V24C12.5 23.7239 12.7239 23.5 13 23.5C13.2761 23.5 13.5 23.7239 13.5 24V28.5C13.5 28.8543 13.6835 29.188 13.9023 29.334C14.0018 29.4003 14.1 29.4233 14.1992 29.4102C14.301 29.3966 14.4553 29.3377 14.6465 29.1465C14.8417 28.9512 15.1583 28.9512 15.3535 29.1465C15.5488 29.3417 15.5488 29.6583 15.3535 29.8535C15.0448 30.1623 14.6989 30.3534 14.332 30.4023C13.9625 30.4516 13.623 30.3496 13.3477 30.166C13.2757 30.118 13.2079 30.064 13.1441 30.0053C13.116 29.9794 13.0715 29.9827 13.0472 30.0123C13.0173 30.0489 12.9855 30.0843 12.9512 30.1182C12.6973 30.3685 12.3503 30.5084 11.9355 30.4648C11.5471 30.424 11.1363 30.2274 10.7002 29.9004C10.4794 29.7348 10.4342 29.4211 10.5996 29.2002C10.7652 28.9794 11.0789 28.9342 11.2998 29.0996C11.6636 29.3724 11.9036 29.4554 12.04 29.4697C12.1499 29.4812 12.2029 29.4517 12.249 29.4062C12.3129 29.3432 12.3807 29.2247 12.4307 29.0439C12.4791 28.8685 12.5 28.6723 12.5 28.5Z" fill="#F0F0F0"/>
</svg>
